HIERARCHY
ROOT root
{
	OFFSET 0.000000 0.000000 0.000000
	CHANNELS 6 Xposition Yposition Zposition Zrotation Yrotation Xrotation
	JOINT lhip
	{
		OFFSET 0.058581 -0.082280 -0.017664
		CHANNELS 3 Zrotation Yrotation Xrotation
		JOINT lknee
		{
			OFFSET 0.043451 -0.386469 0.008037
			CHANNELS 3 Zrotation Yrotation Xrotation
			JOINT lankle
			{
				OFFSET -0.014790 -0.426874 -0.037428
				CHANNELS 3 Zrotation Yrotation Xrotation
				JOINT ltoe
				{
					OFFSET 0.041054 -0.060286 0.122042
					CHANNELS 3 Zrotation Yrotation Xrotation
					End Site
					{
						OFFSET 0.000000 0.000000 0.000000
					}
				}
			}
		}
	}
	JOINT rhip
	{
		OFFSET -0.060310 -0.090513 -0.013543
		CHANNELS 3 Zrotation Yrotation Xrotation
		JOINT rknee
		{
			OFFSET -0.043257 -0.383688 -0.004843
			CHANNELS 3 Zrotation Yrotation Xrotation
			JOINT rankle
			{
				OFFSET 0.019056 -0.420046 -0.034562
				CHANNELS 3 Zrotation Yrotation Xrotation
				JOINT rtoe
				{
					OFFSET -0.034840 -0.062106 0.130323
					CHANNELS 3 Zrotation Yrotation Xrotation
					End Site
					{
						OFFSET 0.000000 0.000000 0.000000
					}
				}
			}
		}
	}
	JOINT lowerback
	{
		OFFSET 0.004439 0.124404 -0.038385
		CHANNELS 3 Zrotation Yrotation Xrotation
		JOINT upperback
		{
			OFFSET 0.004488 0.137956 0.026820
			CHANNELS 3 Zrotation Yrotation Xrotation
			JOINT chest
			{
				OFFSET -0.002265 0.056032 0.002855
				CHANNELS 3 Zrotation Yrotation Xrotation
				JOINT lowerneck
				{
					OFFSET -0.013390 0.211636 -0.033468
					CHANNELS 3 Zrotation Yrotation Xrotation
					JOINT upperneck
					{
						OFFSET 0.010113 0.088937 0.050410
						CHANNELS 3 Zrotation Yrotation Xrotation
						End Site
						{
							OFFSET 0.000000 0.000000 0.000000
						}
					}
				}
				JOINT lclavicle
				{
					OFFSET 0.071702 0.114000 -0.018898
					CHANNELS 3 Zrotation Yrotation Xrotation
					JOINT lshoulder
					{
						OFFSET 0.122921 0.045205 -0.019046
						CHANNELS 3 Zrotation Yrotation Xrotation
						JOINT lelbow
						{
							OFFSET 0.255332 -0.015649 -0.022946
							CHANNELS 3 Zrotation Yrotation Xrotation
							JOINT lwrist
							{
								OFFSET 0.265709 0.012698 -0.007375
								CHANNELS 3 Zrotation Yrotation Xrotation
								End Site
								{
									OFFSET 0.000000 0.000000 0.000000
								}
							}
						}
					}
				}
				JOINT rclavicle
				{
					OFFSET -0.082954 0.112472 -0.023707
					CHANNELS 3 Zrotation Yrotation Xrotation
					JOINT rshoulder
					{
						OFFSET -0.113228 0.046853 -0.008472
						CHANNELS 3 Zrotation Yrotation Xrotation
						JOINT relbow
						{
							OFFSET -0.260127 -0.014369 -0.031269
							CHANNELS 3 Zrotation Yrotation Xrotation
							JOINT rwrist
							{
								OFFSET -0.269108 0.006794 -0.006027
								CHANNELS 3 Zrotation Yrotation Xrotation
								End Site
								{
									OFFSET 0.000000 0.000000 0.000000
								}
							}
						}
					}
				}
			}
		}
	}
}
MOTION
Frames: 17
Frame Time: 0.033333
0.026122 -0.293525 0.904772 164.057614 -5.924366 102.610573 11.611199 8.167468 -44.969264 -9.552092 10.686446 40.896333 0.938948 8.415077 -16.638242 0.000000 -0.000000 0.000000 -18.348634 -10.050093 -45.497681 -0.595371 -6.937279 63.155759 1.173972 -13.269876 -25.367406 0.000000 -0.000000 0.000000 1.945272 -1.000125 35.974358 -1.819627 -4.773100 7.102155 0.337702 1.072700 -11.750269 -7.318766 -8.716995 -16.117256 6.249653 -8.702460 0.890971 -40.078523 -27.787992 10.492830 -44.080688 -20.190984 33.060527 -21.991395 -50.697156 46.365279 6.147438 -19.943229 10.206222 32.676392 24.494247 11.038722 41.743658 4.228086 5.316886 -5.798554 24.384059 -34.761514 -6.440961 11.159957 -45.136053 
0.031972 -0.296911 0.907085 164.211955 -6.374363 102.749435 11.399754 8.130628 -44.333586 -9.680535 10.583945 39.206975 0.523726 8.710184 -15.609085 0.000000 -0.000000 0.000000 -18.456140 -10.051830 -45.560123 -0.878452 -7.446871 62.983919 0.989607 -13.122029 -25.368544 0.000000 -0.000000 0.000000 2.180180 -1.222859 35.131663 -1.944979 -4.743943 7.375352 0.143421 1.223613 -11.630014 -8.675946 -5.979049 -16.012341 5.210335 -5.069080 1.369998 -40.046680 -27.757031 10.394776 -43.611205 -20.253015 32.695787 -21.493444 -51.192088 45.753450 6.139007 -19.736987 9.288801 32.899761 23.996043 10.945706 41.120279 4.222429 6.012538 -5.979994 24.979173 -33.779554 -6.655450 10.140234 -44.414779 
0.037472 -0.299935 0.909283 164.344742 -6.700041 102.643633 11.217165 8.161519 -43.506756 -9.814093 10.112139 37.696316 0.172202 8.841323 -14.768247 0.000000 -0.000000 0.000000 -18.302682 -9.796929 -45.472613 -1.252142 -7.500206 62.946576 0.993801 -13.150290 -25.381654 0.000000 -0.000000 0.000000 2.379224 -1.495167 34.708752 -2.131978 -4.675375 7.556458 0.019400 1.319932 -11.446281 -10.080308 -2.443344 -15.996948 3.698034 -1.131706 1.545276 -39.512253 -27.924982 9.697059 -43.679095 -19.843882 32.418314 -19.963489 -52.085434 44.234743 5.833840 -19.493655 7.844495 32.741431 23.901401 10.880719 41.039985 4.511673 6.543653 -6.560816 24.721933 -32.549575 -6.689335 9.901393 -42.877197 
0.042233 -0.302295 0.910971 164.432472 -6.926208 102.505823 11.147378 8.163677 -42.750460 -9.725318 9.904805 36.456029 0.111060 8.851427 -14.073484 0.000000 -0.000000 0.000000 -18.215193 -9.795356 -45.258163 -1.488671 -7.801912 62.827425 0.795981 -12.936088 -25.416937 0.000000 -0.000000 0.000000 2.554079 -1.635920 34.442162 -2.293958 -4.571159 7.787192 -0.002812 1.382069 -11.510970 -11.612780 1.604866 -15.951429 2.140789 2.904933 1.413226 -38.738064 -27.918177 8.907614 -43.781094 -19.564687 31.840520 -18.992647 -52.839326 42.627793 5.157285 -19.033555 7.562675 32.697682 23.825289 11.226818 40.650953 4.667352 6.601045 -7.089416 24.909470 -32.125011 -5.447749 11.060504 -40.939272 
0.046474 -0.304454 0.912007 164.588954 -7.239079 102.498897 11.099171 8.038394 -42.277360 -9.917298 9.599114 35.431357 -0.054925 8.875095 -13.353391 0.000000 -0.000000 0.000000 -18.274673 -9.868984 -45.314115 -1.546980 -8.013928 62.862268 0.869363 -12.844357 -25.650920 0.000000 -0.000000 0.000000 2.651525 -1.557159 34.020864 -2.450215 -4.455542 8.061263 -0.153082 1.359972 -11.388048 -13.108483 5.194275 -16.292688 0.701064 6.710255 1.148428 -37.857359 -27.686426 7.786611 -43.888945 -19.752994 31.869309 -17.668227 -52.800702 40.685139 5.560460 -18.943612 6.127164 32.622339 23.292149 10.641109 40.463239 5.055524 7.388903 -7.906438 24.651198 -31.278414 -5.653430 10.919672 -39.470931 
0.049582 -0.305899 0.912776 164.953182 -7.284846 102.418047 11.098093 7.828024 -42.004933 -9.822890 9.185396 34.796855 -0.350430 8.857444 -12.754296 0.000000 -0.000000 0.000000 -18.086036 -9.998481 -45.253685 -1.594575 -8.127767 62.995566 0.844946 -12.783895 -25.749480 0.000000 -0.000000 0.000000 3.034689 -1.841226 33.879031 -2.693742 -4.394231 7.963793 -0.421767 1.523393 -11.278953 -14.680293 8.222151 -16.468330 -0.170637 9.853250 0.563074 -37.036468 -27.421942 6.881313 -43.684385 -19.602062 31.242223 -16.183857 -52.967247 38.711676 3.847730 -18.786830 4.447850 32.577324 22.867532 10.629889 40.286669 5.425166 7.184990 -8.596399 24.135190 -30.577310 -5.025816 11.641966 -36.325385 
0.052900 -0.306797 0.913560 165.044181 -7.351113 102.323252 11.027527 7.893297 -41.561540 -9.641316 8.837500 34.068677 -0.179042 8.607664 -12.444500 0.000000 -0.000000 0.000000 -17.885039 -10.092361 -45.105142 -1.723311 -8.294306 62.989860 0.764889 -12.766965 -25.909757 0.000000 -0.000000 0.000000 2.956372 -1.729504 34.185610 -2.937190 -4.085832 7.201356 -0.476192 1.568689 -10.910588 -16.006269 10.570260 -16.889797 -1.021325 12.340462 0.309960 -36.633176 -26.827641 6.257024 -43.001980 -19.481107 30.590128 -14.262577 -52.979224 35.988533 3.709829 -18.491755 2.850681 32.744048 22.194510 10.611444 40.060162 5.859467 7.493462 -9.820366 24.347492 -29.731737 -5.222143 11.417747 -34.386271 
0.055738 -0.307756 0.913834 165.283876 -7.427572 102.090901 10.973746 7.821796 -41.164445 -9.598688 8.505721 33.664014 -0.296258 8.849569 -12.033404 0.000000 -0.000000 0.000000 -17.847890 -10.117687 -44.870383 -1.692784 -8.444853 63.121184 0.754665 -12.694590 -26.041497 0.000000 -0.000000 0.000000 2.881606 -1.484105 34.232018 -3.168666 -3.930137 7.124389 -0.559084 1.502910 -10.879469 -16.834409 12.124892 -16.714522 -1.708669 13.935294 -0.241481 -36.551942 -26.547819 6.002448 -41.715949 -19.187264 29.342829 -12.083263 -52.804248 32.652469 3.757150 -18.326806 1.955541 32.891902 22.104004 10.618009 39.876164 6.051970 7.532451 -10.578442 24.295920 -29.131024 -5.651060 11.730989 -32.791481 
0.058115 -0.308411 0.914130 165.504166 -7.404373 102.106358 11.003968 7.763474 -41.095185 -9.599845 8.287164 33.240468 -0.308846 9.293901 -11.770467 0.000000 -0.000000 0.000000 -17.630687 -10.170793 -44.796110 -1.724868 -8.551359 63.100088 0.549522 -12.871252 -26.150359 0.000000 -0.000000 0.000000 2.720530 -1.232188 34.557420 -3.391385 -3.765737 6.478347 -0.640560 1.457352 -10.797397 -17.389713 12.799362 -17.033020 -2.037828 15.202592 -0.229033 -36.404880 -25.852734 5.531329 -40.469769 -18.784006 28.552537 -9.845832 -52.727038 30.214278 4.915510 -17.598347 1.089664 33.008175 21.477376 10.206822 39.809607 6.313834 7.973036 -11.314395 24.677152 -28.185661 -5.884130 10.676872 -31.708243 
0.059353 -0.309686 0.913719 165.951319 -7.283452 102.025989 11.182731 7.511088 -41.394136 -9.568139 8.011859 33.541399 -0.413009 9.329219 -11.556575 0.000000 -0.000000 0.000000 -17.474286 -10.275809 -44.749446 -1.590959 -8.706685 63.167732 0.443346 -13.111504 -26.068340 0.000000 -0.000000 0.000000 2.687942 -1.018010 34.539159 -3.523301 -3.799685 6.423906 -0.727767 1.571168 -10.756000 -17.689034 13.144797 -16.831427 -2.169737 15.861823 -0.356436 -36.625071 -25.738476 5.929476 -38.728956 -18.365137 26.784931 -7.229708 -52.653351 26.880695 2.743750 -17.312106 -0.310244 32.932166 21.631204 10.707687 39.708578 6.669221 7.282875 -12.285075 25.299596 -28.380270 -5.846487 10.479875 -30.664269 
0.060430 -0.310572 0.912893 166.385943 -7.249614 101.904531 11.217038 7.317272 -41.610319 -9.570163 7.721269 33.761540 -0.299398 9.392585 -11.518945 0.000000 -0.000000 0.000000 -17.478006 -10.391047 -44.676441 -1.651582 -9.000032 63.385697 0.400433 -13.248724 -26.201744 0.000000 -0.000000 0.000000 2.547569 -0.817386 34.639413 -3.756739 -3.750133 6.740720 -0.853058 1.553979 -10.922242 -17.614626 13.372515 -17.106456 -2.565944 16.018284 -0.244066 -36.592316 -25.133821 5.667391 -37.196555 -18.303803 25.251203 -4.715451 -52.503614 23.325265 3.886370 -16.933265 0.521907 33.016497 21.568870 10.530378 39.488791 7.245953 7.153557 -13.141757 25.800051 -28.424171 -6.303930 10.480027 -29.765581 
0.060796 -0.311189 0.911683 166.717459 -7.140308 101.681920 11.294383 7.281958 -41.727925 -9.482602 7.776568 33.957659 -0.306949 9.455079 -11.632037 0.000000 -0.000000 0.000000 -17.410575 -10.458477 -44.604480 -1.672788 -9.116451 63.758820 0.438929 -13.363987 -26.455469 0.000000 -0.000000 0.000000 2.446407 -0.563445 35.253520 -4.034882 -3.623599 6.454124 -0.937131 1.465847 -10.939034 -17.643795 13.895699 -17.253233 -2.848994 16.322654 -0.100784 -36.254538 -24.673475 5.472898 -36.148439 -18.017402 23.803395 -1.773690 -52.296897 19.258905 4.370980 -16.361519 0.086554 32.935777 21.578704 10.729022 39.339527 7.757753 6.917326 -13.774649 26.770777 -28.539226 -6.835075 10.444488 -29.605392 
0.060355 -0.311489 0.910193 167.093974 -7.009620 101.594356 11.306249 7.330236 -42.187232 -9.522133 7.587252 34.568338 -0.213513 9.412365 -11.709453 0.000000 -0.000000 0.000000 -17.338964 -10.559690 -44.640637 -1.839963 -9.204418 64.138547 0.500775 -13.476126 -26.621202 0.000000 -0.000000 0.000000 2.410301 -0.304575 35.764329 -4.380034 -3.420681 6.164355 -0.991698 1.459098 -10.919806 -17.797715 14.308750 -17.130246 -3.133458 16.736835 -0.250259 -36.178301 -24.491686 5.040813 -35.000545 -17.354594 22.786619 0.745446 -52.037744 16.569005 4.594652 -15.898275 0.090836 32.876439 21.641833 10.377739 39.094456 7.657452 6.845379 -13.832763 27.882545 -28.487169 -6.911731 10.327767 -29.995319 
0.059059 -0.311567 0.908350 167.408155 -6.904295 101.427387 11.425082 7.237773 -42.637964 -9.651145 7.548096 35.403847 -0.100522 9.377997 -11.944099 0.000000 -0.000000 0.000000 -17.336822 -10.625568 -44.688310 -1.894393 -9.151664 64.626536 0.508118 -13.538551 -26.770930 0.000000 -0.000000 0.000000 2.268406 0.043078 36.453587 -4.582165 -3.371301 5.863071 -1.091601 1.481918 -10.864916 -17.880207 14.824134 -17.316771 -3.190732 17.256192 -0.016305 -35.950283 -24.011649 4.732736 -33.793303 -17.395796 21.687259 2.732939 -51.740445 14.388487 4.440214 -15.687408 -0.604607 32.843223 21.583898 10.335609 38.869782 8.086399 6.785381 -14.282731 28.818898 -28.734227 -7.142300 10.305106 -29.839878 
0.057488 -0.311068 0.906260 167.803493 -6.758406 101.282561 11.516366 7.217083 -43.131622 -9.735001 7.663938 36.235515 0.219523 9.429978 -12.350661 0.000000 -0.000000 0.000000 -17.173078 -10.667629 -44.809806 -1.896218 -8.756931 65.252831 0.697101 -13.992111 -27.012447 0.000000 -0.000000 0.000000 2.128607 0.406451 37.089503 -4.717575 -3.295373 5.388130 -1.021384 1.352703 -10.595543 -18.057037 15.247798 -17.383454 -3.512903 17.861235 0.011146 -35.975791 -23.726715 4.350234 -32.493214 -16.986041 20.847365 4.251486 -51.762475 11.713454 5.140895 -15.259567 -1.166374 32.753092 21.727309 10.127715 38.755477 8.252057 7.349683 -14.480742 29.605492 -28.462420 -7.868962 9.756245 -30.474915 
0.054917 -0.310093 0.904041 168.182863 -6.640374 101.178741 11.630955 7.160174 -43.738182 -9.953972 7.797430 37.296825 0.410284 9.255275 -12.690760 0.000000 -0.000000 0.000000 -17.348169 -10.995882 -44.714095 -1.977414 -8.969022 65.659853 0.476655 -13.978216 -27.105025 0.000000 -0.000000 0.000000 1.936243 0.649725 37.727610 -4.903309 -3.267032 5.021873 -1.061802 1.352920 -10.484474 -17.983078 15.876329 -17.335672 -3.822317 18.233884 -0.128752 -35.621172 -23.466076 3.901997 -31.803294 -16.656939 20.442411 5.855926 -51.618177 9.541168 6.068728 -15.070887 -1.222154 32.706043 21.868261 10.026253 38.785301 8.249522 7.990484 -14.859605 30.498119 -27.937422 -8.288730 9.705450 -30.284845 
0.052070 -0.308803 0.901705 168.554475 -6.467798 101.084307 11.714118 7.291305 -44.427353 -10.518166 7.435308 38.589650 0.500984 9.171779 -12.995417 0.000000 -0.000000 0.000000 -17.503843 -11.218879 -44.644884 -1.635678 -8.981054 66.011324 0.574884 -14.244595 -27.330836 0.000000 -0.000000 0.000000 1.729250 0.921032 38.419551 -5.043969 -3.270814 4.274665 -1.017183 1.353668 -10.153523 -17.986946 16.337079 -17.091779 -3.771384 18.785343 -0.296055 -35.564764 -23.190729 3.981708 -30.794826 -16.363409 19.592721 6.775999 -51.915534 8.226370 6.424708 -14.596832 -1.791166 32.870504 21.888180 10.247148 38.816244 8.231122 8.102946 -15.173864 31.564789 -26.796490 -8.587433 9.218741 -29.421116 
